<?xml version="1.0" encoding="UTF-8" standalone="yes"?>
<svg width="96" zoomAndPan="disable" viewBox="0 0 72 72" height="96" preserveAspectRatio="xMidYMid meet" version="1.2" baseProfile="tiny-ps" xmlns="http://www.w3.org/2000/svg">
  <title>bimi-svg-tiny-12-ps</title>
  <rect x="-7.2" width="86.4" fill="#ffffff" y="-7.2" height="86.4" fill-opacity="1"/>
  <rect x="-7.2" width="86.4" fill="#006ad8" y="-7.2" height="86.4" fill-opacity="1"/>
  <path fill="#ffffff" d="M 47.550781 19.511719 C 38.457031 13.144531 25.875 15.363281 19.503906 24.457031 C 13.136719 33.554688 15.355469 46.136719 24.449219 52.503906 C 33.527344 58.859375 46.113281 56.675781 52.496094 47.558594 C 58.863281 38.460938 56.644531 25.878906 47.550781 19.511719 Z M 51.316406 45.386719 C 46.667969 50.027344 40.773438 49.003906 35.382812 47.699219 C 38.386719 46.148438 40.347656 43.535156 44.292969 43 C 47.507812 43.015625 50.636719 42.410156 53.347656 40.675781 C 52.910156 42.304688 52.234375 43.890625 51.316406 45.386719 Z M 29.296875 46.347656 C 29.265625 46.523438 25.179688 45.214844 22.457031 47.804688 C 21.019531 46.15625 19.921875 44.28125 19.179688 42.285156 C 21.472656 37.21875 30.015625 41.113281 39.238281 42.554688 C 35.699219 44.652344 33.894531 47.367188 29.296875 46.347656 Z M 18.144531 34.105469 C 23.386719 29.28125 30.242188 31.078125 37.070312 32.859375 C 34.246094 34.453125 31.753906 36.996094 23.980469 37.582031 C 21.707031 37.574219 19.773438 38.082031 18.398438 39.527344 C 18.046875 37.75 17.953125 35.921875 18.144531 34.105469 Z M 45.375 34.414062 C 45.628906 34.488281 45.582031 34.496094 45.601562 34.421875 C 48.753906 34.496094 51.355469 33.640625 53.269531 31.105469 C 53.855469 33.171875 54.070312 35.335938 53.894531 37.488281 C 47.921875 43.164062 38.652344 40.289062 30.769531 38.546875 C 36.199219 36.832031 37.71875 34.105469 40.9375 33.800781 C 42.457031 34.125 43.949219 34.359375 45.375 34.414062 Z M 52.324219 28.53125 C 46.96875 38.871094 30.570312 23.570312 18.789062 30.886719 C 23.507812 14.988281 45.5 13.5625 52.324219 28.53125 Z M 23.984375 49.355469 C 27.8125 45.871094 37.71875 52.726562 46.558594 50.535156 C 39.894531 55.371094 30.472656 55.191406 23.984375 49.355469 Z M 23.984375 49.355469 " fill-opacity="1" fill-rule="nonzero"/>
</svg>